<svg width="35" height="28" viewBox="0 0 35 28" fill="none" xmlns="http://www.w3.org/2000/svg">
<rect x="1" y="1" width="33" height="26" rx="4" stroke="white" stroke-width="2"/>
<path d="M11.1774 9.34157L13.1661 7.14352L12.2175 6.09506C11.9124 5.75786 11.4178 5.75786 11.1127 6.09506L10.2288 7.07199C9.92373 7.40919 9.92373 7.95591 10.2288 8.29311L11.1774 9.34157Z" fill="white"/>
<path d="M11.8401 10.0746L13.8285 7.87689L14.4913 8.60945L12.5029 10.8072L11.8401 10.0746Z" fill="white"/>
<path d="M24.3481 19.6757L22.516 21.7006L25.2987 23.4581C25.4822 23.574 25.7132 23.5398 25.8627 23.3746C26.0121 23.2094 26.0431 22.9541 25.9382 22.7512L24.3481 19.6757Z" fill="white"/>
<path d="M13.1654 11.5405L15.1538 9.34283L23.7609 18.8559L21.7725 21.0536L13.1654 11.5405Z" fill="white"/>
<path d="M20.6519 13.9519L21.6183 12.8837C22.8006 13.3493 24.1396 13.0277 25.0407 12.0317C25.8984 11.0838 26.1809 9.73737 25.8886 8.52675C25.7958 8.14272 25.3592 8.01641 25.1049 8.29745L23.6045 9.95579L22.2787 8.49042L23.7791 6.83208C24.0334 6.55104 23.9191 6.06839 23.5717 5.96588C22.4763 5.64277 21.2582 5.95504 20.4005 6.90299C19.4993 7.89905 19.2084 9.37896 19.6296 10.6857L18.6632 11.7538L20.6519 13.9519Z" fill="white"/>
<path d="M15.3487 15.4171L14.3823 16.4852C13.2 16.0197 11.861 16.3412 10.9598 17.3373C10.1022 18.2852 9.81964 19.6316 10.112 20.8423C10.2047 21.2263 10.6414 21.3526 10.8957 21.0715L12.3961 19.4132L13.7219 20.8786L12.2215 22.5369C11.9672 22.8179 12.0815 23.3006 12.429 23.4031C13.5243 23.7262 14.7425 23.4139 15.6001 22.466C16.5013 21.4699 16.7923 19.99 16.371 18.6832L17.3374 17.6151L15.3487 15.4171Z" fill="white"/>
</svg>
