<svg width="35" height="28" viewBox="0 0 35 28" fill="none" xmlns="http://www.w3.org/2000/svg">
<rect x="1" y="1" width="33" height="26" rx="4" stroke="white" stroke-width="2"/>
<path d="M25.6007 8.06192H12.0648L11.8636 5.56373C11.8307 5.1552 11.5235 4.84216 11.1555 4.84216H9.71097C9.31831 4.84216 9 5.19693 9 5.63456C9 6.07218 9.31831 6.42695 9.71097 6.42695H10.5055C10.9397 11.8183 9.81752 -2.11637 11.3232 16.5805C11.3813 17.3123 11.736 18.1064 12.3472 18.6459C11.2453 20.2143 12.2521 22.5264 14.0445 22.5264C15.5322 22.5264 16.5815 20.8727 16.0714 19.3065H19.9626C19.4531 20.8707 20.5001 22.5264 21.9894 22.5264C23.178 22.5264 24.1449 21.4487 24.1449 20.124C24.1449 18.7994 23.178 17.7217 21.9894 17.7217H14.0493C13.5093 17.7217 13.0386 17.3585 12.8355 16.8294L24.1978 16.0852C24.508 16.0649 24.7705 15.8224 24.8459 15.4864L26.2905 9.04649C26.4025 8.54713 26.0633 8.06192 25.6007 8.06192ZM14.0445 20.9416C13.6401 20.9416 13.311 20.5748 13.311 20.124C13.311 19.6732 13.6401 19.3065 14.0445 19.3065C14.449 19.3065 14.7781 19.6732 14.7781 20.124C14.7781 20.5748 14.449 20.9416 14.0445 20.9416ZM21.9894 20.9416C21.5849 20.9416 21.2559 20.5748 21.2559 20.124C21.2559 19.6732 21.5849 19.3065 21.9894 19.3065C22.3939 19.3065 22.723 19.6732 22.723 20.124C22.723 20.5748 22.3939 20.9416 21.9894 20.9416ZM23.593 14.5373L12.6441 15.2544L12.1925 9.64667H24.6901L23.593 14.5373Z" fill="white"/>
</svg>
