<svg width="24" height="24" viewBox="0 0 24 24" fill="none" xmlns="http://www.w3.org/2000/svg">
<g clip-path="url(#clip0)">
<path d="M23.6756 10.8339L18.0077 5.37709V1.0342C18.0077 0.474774 17.5464 0.0134949 16.987 0.0134949C16.4276 0.0134949 15.9663 0.474774 15.9663 1.0342V3.4142L12.6981 0.26867C12.3399 -0.0895568 11.7265 -0.0895568 11.3192 0.26867L0.346612 10.8339C-0.0606874 11.2412 -0.114667 11.8546 0.29754 12.2619C0.709747 12.6692 1.31824 12.7232 1.72554 12.311L1.87767 12.1638V22.9793C1.87767 23.5387 2.33894 24 2.89837 24H21.1729C21.7323 24 22.1445 23.5387 22.1936 23.0284V12.2668L22.2966 12.365C23.0425 12.8802 23.5725 12.5171 23.7246 12.2619C24.0828 11.8546 24.0828 11.1921 23.6756 10.8339ZM13.8218 22.0126H10.2494V16.5508H13.8218V22.0126ZM20.1522 22.0126H15.8142V15.5301C15.8142 14.9707 15.3529 14.5094 14.7935 14.5094H9.22869C8.66926 14.5094 8.20798 14.9707 8.20798 15.5301V22.0126H3.91907V12.0067H20.1522V22.0126ZM4.11536 10.0193L12.0356 2.41313L19.8774 10.0193H4.11536Z" fill="white"/>
</g>
<defs>
<clipPath id="clip0">
<rect width="24" height="24" fill="white"/>
</clipPath>
</defs>
</svg>
