<svg width="26" height="27" viewBox="0 0 26 27" fill="none" xmlns="http://www.w3.org/2000/svg">
<path d="M24.7842 4.80697H4.57569L4.27529 1.07727C4.22616 0.467346 3.76751 0 3.21808 0H1.06146C0.475229 0 0 0.529651 0 1.18301C0 1.83637 0.475229 2.36602 1.06146 2.36602H2.24766C2.89591 10.4151 1.22052 -10.3888 3.46849 17.5248C3.55512 18.6174 4.08479 19.8029 4.99724 20.6085C3.35213 22.95 4.85525 26.4018 7.53129 26.4018C9.75236 26.4018 11.3189 23.9329 10.5572 21.5946H16.3668C15.606 23.9299 17.1692 26.4018 19.3927 26.4018C21.1672 26.4018 22.6108 24.7929 22.6108 22.8152C22.6108 20.8376 21.1672 19.2286 19.3927 19.2286H7.53846C6.73216 19.2286 6.02953 18.6864 5.72625 17.8965L22.6897 16.7854C23.1528 16.7551 23.5447 16.393 23.6572 15.8914L25.814 6.27689C25.9812 5.53136 25.4749 4.80697 24.7842 4.80697ZM7.53129 24.0358C6.92747 24.0358 6.43617 23.4882 6.43617 22.8152C6.43617 22.1422 6.92747 21.5946 7.53129 21.5946C8.13515 21.5946 8.62646 22.1422 8.62646 22.8152C8.62646 23.4882 8.13515 24.0358 7.53129 24.0358ZM19.3927 24.0358C18.7888 24.0358 18.2975 23.4882 18.2975 22.8152C18.2975 22.1422 18.7888 21.5946 19.3927 21.5946C19.9965 21.5946 20.4878 22.1422 20.4878 22.8152C20.4878 23.4882 19.9965 24.0358 19.3927 24.0358ZM21.7868 14.4745L5.44052 15.5451L4.76624 7.17293H23.4247L21.7868 14.4745Z" fill="white"/>
</svg>
