<svg width="24" height="27" viewBox="0 0 24 27" fill="none" xmlns="http://www.w3.org/2000/svg">
<path d="M1.76617 5.24922L4.7493 1.95208L3.32636 0.37936C2.86872 -0.126453 2.12673 -0.126453 1.66909 0.37936L0.343231 1.84478C-0.11441 2.3506 -0.11441 3.17069 0.343231 3.6765L1.76617 5.24922Z" fill="white"/>
<path d="M2.76001 6.34827L5.74267 3.05165L6.73689 4.15052L3.75423 7.44714L2.76001 6.34827Z" fill="white"/>
<path d="M21.5224 20.7504L18.7742 23.7879L22.9483 26.4242C23.2236 26.598 23.5701 26.5467 23.7943 26.2989C24.0185 26.0511 24.0649 25.6681 23.9076 25.3638L21.5224 20.7504Z" fill="white"/>
<path d="M4.74792 8.54749L7.73058 5.25086L20.6415 19.5208L17.6588 22.8174L4.74792 8.54749Z" fill="white"/>
<path d="M15.9778 12.1643L17.4274 10.5621C19.2009 11.2605 21.2095 10.7781 22.5612 9.28403C23.8478 7.86208 24.2716 5.84245 23.8331 4.02649C23.6939 3.45042 23.0389 3.26095 22.6575 3.68252L20.4069 6.17009L18.4181 3.97198L20.6688 1.48442C21.0502 1.06284 20.8788 0.338862 20.3576 0.185092C18.7145 -0.299583 16.8873 0.168824 15.6007 1.59078C14.2489 3.08491 13.8125 5.30483 14.4444 7.26503L12.9948 8.86723L15.9778 12.1643Z" fill="white"/>
<path d="M8.02275 14.3625L6.57314 15.9648C4.79958 15.2664 2.79113 15.7488 1.4393 17.2428C0.152769 18.6648 -0.271028 20.6844 0.167487 22.5004C0.306612 23.0765 0.961643 23.266 1.34307 22.8443L3.59372 20.3568L5.58249 22.5549L3.33183 25.0424C2.95036 25.464 3.12183 26.188 3.64303 26.3417C5.28609 26.8264 7.11338 26.358 8.39986 24.936C9.75169 23.4419 10.1881 21.222 9.55622 19.2618L11.0059 17.6596L8.02275 14.3625Z" fill="white"/>
</svg>
